# xmcd CD database file
#
# Track frame offsets:
#	150
#	16365
#	31620
#	45878
#	70692
#	84715
#	98771
#	110850
#	127603
#	138907
#
# Disc length: 2160 seconds
#
# Revision: 0
# Processed by: cddbd v1.4PL0 Copyright (c) Steve Scherf et al.
# Submitted via: CDex 1.51
#
DISCID=70086e0a
DTITLE=Stranger By The Minute - Shameless Nights
DYEAR=2003
DGENRE=Blues
TTITLE0=Shameless Nights
TTITLE1=Eyes of a Dancer
TTITLE2=Phantom Lovers
TTITLE3=3-lane Drift
TTITLE4=Punk Rock Barbie
TTITLE5=Bloody Moon
TTITLE6=The Moon and Mexico
TTITLE7=Just Around the Bend
TTITLE8=Sink Down
TTITLE9=The Zen of Romance
EXTD=YEAR: 2003
EXTT0=
EXTT1=
EXTT2=
EXTT3=
EXTT4=
EXTT5=
EXTT6=
EXTT7=
EXTT8=
EXTT9=
PLAYORDER=
